<svg width="40" height="36" viewBox="0 0 40 36" fill="none" xmlns="http://www.w3.org/2000/svg">
<g opacity="0.5">
<path fill-rule="evenodd" clip-rule="evenodd" d="M6.39106 0.71875H33.3449L13.7372 20.7188C13.4297 19.9028 12.9368 19.2023 12.2391 18.5845C11.8004 18.1961 11.1878 17.8442 9.96252 17.1407L4.35416 13.9204C2.52794 12.8718 1.61484 12.3475 1.11504 11.5027C0.615234 10.658 0.615234 9.6389 0.615234 7.6008V6.24615C0.615234 3.64051 0.615235 2.3377 1.46108 1.52822C2.30694 0.71875 3.66832 0.71875 6.39106 0.71875Z" fill="#409CFF"/>
<path d="M39.2958 7.53301V6.19169C39.2958 3.61173 39.2958 2.32175 38.4366 1.52025C37.5772 0.71875 36.1942 0.71875 33.4282 0.71875L13.5088 20.5217C13.6054 20.7716 13.6839 21.0323 13.7451 21.3049C13.8694 21.8591 13.8694 22.5078 13.8694 23.8049V28.9956C13.8694 30.7643 13.8694 31.6484 14.3621 32.3379C14.8549 33.0272 15.73 33.3673 17.4803 34.0476C21.1546 35.4756 22.9918 36.1896 24.2983 35.3773C25.6047 34.5649 25.6047 32.7085 25.6047 28.9956V23.8049C25.6047 22.5078 25.6047 21.8591 25.7291 21.3049C25.9878 20.1505 26.5591 19.2094 27.4872 18.4085C27.9327 18.0239 28.5551 17.6754 29.8 16.9789L35.4975 13.7904C37.3526 12.7521 38.2803 12.233 38.7881 11.3965C39.2958 10.56 39.2958 9.55103 39.2958 7.53301Z" fill="black"/>
</g>
</svg>
