<svg width="44" height="42" viewBox="0 0 44 42" fill="none" xmlns="http://www.w3.org/2000/svg">
<path d="M5.7487 7.91927H38.2487V11.1693H5.7487V7.91927Z" fill="#424242"/>
<path d="M0.332031 23.0859H43.6654V15.5026C43.6654 13.1193 41.7154 11.1693 39.332 11.1693H4.66536C2.28203 11.1693 0.332031 13.1193 0.332031 15.5026V23.0859Z" fill="#616161"/>
<path d="M4.66536 35.0026H39.332C41.7154 35.0026 43.6654 33.0526 43.6654 30.6693V22.0026H0.332031V30.6693C0.332031 33.0526 2.28203 35.0026 4.66536 35.0026Z" fill="#424242"/>
<path d="M38.2487 15.5026C38.2487 15.6449 38.2767 15.7857 38.3312 15.9172C38.3856 16.0486 38.4654 16.168 38.566 16.2686C38.6666 16.3692 38.786 16.449 38.9175 16.5035C39.0489 16.5579 39.1898 16.5859 39.332 16.5859C39.4743 16.5859 39.6152 16.5579 39.7466 16.5035C39.878 16.449 39.9975 16.3692 40.0981 16.2686C40.1987 16.168 40.2785 16.0486 40.3329 15.9172C40.3873 15.7857 40.4154 15.6449 40.4154 15.5026C40.4154 15.3603 40.3873 15.2195 40.3329 15.088C40.2785 14.9566 40.1987 14.8372 40.0981 14.7366C39.9975 14.636 39.878 14.5562 39.7466 14.5017C39.6152 14.4473 39.4743 14.4193 39.332 14.4193C39.1898 14.4193 39.0489 14.4473 38.9175 14.5017C38.786 14.5562 38.6666 14.636 38.566 14.7366C38.4654 14.8372 38.3856 14.9566 38.3312 15.088C38.2767 15.2195 38.2487 15.3603 38.2487 15.5026Z" fill="#00E676"/>
<path d="M7.91536 0.335938H36.082V11.1693H7.91536V0.335938Z" fill="#90CAF9"/>
<path d="M36.6237 29.5859H7.3737C6.50703 29.5859 5.7487 28.8276 5.7487 27.9609C5.7487 27.0943 6.50703 26.3359 7.3737 26.3359H36.6237C37.4904 26.3359 38.2487 27.0943 38.2487 27.9609C38.2487 28.8276 37.4904 29.5859 36.6237 29.5859Z" fill="#242424"/>
<path d="M7.91536 29.5859H36.082V41.5026H7.91536V29.5859Z" fill="#90CAF9"/>
<path d="M7.91536 27.4193H36.082V29.5859H7.91536V27.4193Z" fill="#409CFF"/>
<path d="M5.9987 26.0026H42.9987V30.3359H5.9987V26.0026ZM5.9987 34.6693H34.2928V39.0026H5.9987V34.6693Z" fill="#409CFF"/>
</svg>
