<svg width="39" height="35" viewBox="0 0 39 35" fill="none" xmlns="http://www.w3.org/2000/svg">
<g opacity="0.5">
<path fill-rule="evenodd" clip-rule="evenodd" d="M5.82353 0H33L13.2303 20C12.9203 19.184 12.4234 18.4836 11.7199 17.8658C11.2776 17.4773 10.6599 17.1254 9.42449 16.422L3.7698 13.2017C1.9285 12.1531 1.00786 11.6288 0.503929 10.784C-1.78814e-07 9.9392 0 8.92015 0 6.88205V5.5274C0 2.92176 2.38419e-07 1.61895 0.852837 0.809473C1.70567 -5.96046e-08 3.0783 0 5.82353 0Z" fill="#409CFF"/>
<path d="M39 6.81426V5.47294C39 2.89298 39 1.603 38.1337 0.801499C37.2672 -5.96046e-08 35.8728 0 33.0839 0L13 19.803C13.0974 20.0528 13.1766 20.3136 13.2383 20.5862C13.3636 21.1404 13.3636 21.789 13.3636 23.0862V28.2768C13.3636 30.0455 13.3636 30.9296 13.8604 31.6191C14.3572 32.3084 15.2396 32.6485 17.0043 33.3289C20.709 34.7569 22.5613 35.4709 23.8787 34.6585C25.1958 33.8461 25.1958 31.9898 25.1958 28.2768V23.0862C25.1958 21.789 25.1958 21.1404 25.3212 20.5862C25.5821 19.4318 26.1581 18.4907 27.0939 17.6898C27.5431 17.3051 28.1706 16.9567 29.4258 16.2602L35.1703 13.0716C37.0408 12.0333 37.9761 11.5142 38.4881 10.6777C39 9.84128 39 8.83228 39 6.81426Z" fill="black"/>
</g>
</svg>
